<svg width="24" height="35" viewBox="0 0 24 40" fill="none" xmlns="http://www.w3.org/2000/svg">
<path d="M19.4552 39.9995C18.9166 39.9975 18.384 39.8866 17.8893 39.6736C17.3946 39.4606 16.9481 39.1499 16.5764 38.76L1.14295 22.7668C0.410348 22.0194 0 21.0145 0 19.968C0 18.9214 0.410348 17.9165 1.14295 17.1691L17.1362 1.17587C17.509 0.803074 17.9516 0.507356 18.4387 0.3056C18.9257 0.103844 19.4478 7.85611e-09 19.975 0C20.5022 -7.85611e-09 21.0243 0.103844 21.5114 0.3056C21.9984 0.507356 22.441 0.803074 22.8138 1.17587C23.1866 1.54867 23.4823 1.99124 23.6841 2.47833C23.8858 2.96541 23.9897 3.48746 23.9897 4.01468C23.9897 4.54189 23.8858 5.06394 23.6841 5.55103C23.4823 6.03811 23.1866 6.48068 22.8138 6.85348L9.61937 20.0079L22.334 33.2024C23.0787 33.9515 23.4967 34.9649 23.4967 36.0212C23.4967 37.0775 23.0787 38.0909 22.334 38.84C21.9557 39.2154 21.5061 39.5113 21.0117 39.7105C20.5173 39.9096 19.9881 40.0079 19.4552 39.9995Z" fill="#FFBA00"/>
</svg>
