<svg width="24" height="35" viewBox="0 0 24 40" fill="none" xmlns="http://www.w3.org/2000/svg">
<path d="M4.5267 39.9995C5.0653 39.9975 5.59792 39.8866 6.09261 39.6736C6.5873 39.4606 7.03386 39.1499 7.40549 38.76L22.839 22.7668C23.5716 22.0194 23.9819 21.0145 23.9819 19.968C23.9819 18.9214 23.5716 17.9165 22.839 17.1691L6.84573 1.17587C6.47293 0.803074 6.03035 0.507356 5.54327 0.3056C5.05619 0.103844 4.53414 7.85611e-09 4.00692 0C3.47971 -7.85611e-09 2.95765 0.103844 2.47057 0.3056C1.98349 0.507356 1.54092 0.803074 1.16812 1.17587C0.795323 1.54867 0.499603 1.99124 0.297847 2.47833C0.0960904 2.96541 -0.00775347 3.48746 -0.00775346 4.01468C-0.00775345 4.54189 0.0960904 5.06394 0.297847 5.55103C0.499603 6.03811 0.795323 6.48068 1.16812 6.85348L14.3626 20.0079L1.64792 33.2024C0.903227 33.9515 0.485237 34.9649 0.485237 36.0212C0.485237 37.0775 0.903227 38.0909 1.64792 38.84C2.02626 39.2154 2.47584 39.5113 2.97022 39.7105C3.46459 39.9096 3.9938 40.0079 4.5267 39.9995Z" fill="#FFBA00"/>
</svg>
