<svg width="255" height="375" viewBox="0 0 255 375" fill="none" xmlns="http://www.w3.org/2000/svg">
<path d="M223.031 159.359C238.994 189.384 248.507 223.162 248.507 250.499C248.507 315.755 194.333 368.662 127.503 368.662C60.6722 368.662 6.48926 315.755 6.48926 250.499C6.48926 223.162 16.0031 189.384 31.9662 159.359C41.6272 141.194 49.9983 122.42 56.9411 103.105C69.6233 67.8059 96.4508 32.963 127.503 32.963C158.546 32.963 185.373 67.8059 198.064 103.105C204.998 122.42 213.37 141.194 223.031 159.359ZM184.144 255.435C184.144 224.886 158.788 175.944 127.503 175.944C96.217 175.944 70.8526 224.886 70.8526 255.435C70.8526 285.984 96.217 310.751 127.503 310.751C158.788 310.751 184.144 285.984 184.144 255.435Z" fill="#9AD14B"/>
<path d="M127.503 175.944C158.788 175.944 184.144 224.886 184.144 255.435C184.144 285.984 158.788 310.751 127.503 310.751C96.217 310.751 70.8525 285.984 70.8525 255.435C70.8525 224.886 96.217 175.944 127.503 175.944Z" fill="#B27214"/>
<path d="M161.339 275.727C160.493 275.727 159.635 275.566 158.809 275.224C155.508 273.858 153.964 270.137 155.363 266.913C156.941 263.278 157.74 259.416 157.74 255.435C157.74 244.932 152.563 229.485 145.149 217.872C142.975 214.467 140.68 211.456 138.327 208.923C135.917 206.33 136.117 202.321 138.773 199.968C141.428 197.616 145.534 197.81 147.944 200.404C150.818 203.497 153.585 207.118 156.168 211.165C165.012 225.016 170.726 242.393 170.726 255.435C170.726 261.125 169.58 266.651 167.32 271.859C166.271 274.276 163.868 275.727 161.339 275.727Z" fill="white"/>
<path d="M127.5 169.602C110.995 169.602 94.8122 180.709 81.9334 200.878C71.0934 217.855 64.3584 238.76 64.3584 255.434C64.3584 289.43 92.6835 317.088 127.499 317.088C162.315 317.088 190.64 289.43 190.64 255.434C190.64 238.76 183.906 217.855 173.065 200.878C160.187 180.709 144.005 169.602 127.5 169.602ZM127.5 304.408C99.8444 304.408 77.3445 282.438 77.3445 255.434C77.3445 227.874 100.786 182.28 127.5 182.28C154.213 182.28 177.656 227.874 177.656 255.434C177.655 282.438 155.156 304.408 127.5 304.408Z" fill="#333333"/>
<path d="M228.793 156.44C219.207 138.411 210.926 119.759 204.186 101.003C191.724 66.3283 165.607 31.362 133.993 27.0679V6.33969C133.993 2.83849 131.087 0 127.5 0C123.913 0 121.007 2.83849 121.007 6.33969V27.0679C89.3919 31.362 63.2752 66.3283 50.8128 101.003C44.0727 119.758 35.7933 138.41 26.2067 156.44C9.79691 187.3 0 222.464 0 250.503C0 319.151 57.1964 375 127.5 375C197.804 375 255 319.151 255 250.503C255 222.465 245.203 187.301 228.793 156.44ZM127.5 362.321C64.3564 362.321 12.9852 312.159 12.9852 250.503C12.9852 224.402 22.2367 191.422 37.7315 162.282C47.5994 143.723 56.1238 124.518 63.0665 105.202C74.4728 73.4643 99.5013 39.3052 127.501 39.3052C155.5 39.3052 180.528 73.4643 191.934 105.202C198.878 124.52 207.401 143.725 217.27 162.282C232.765 191.424 242.017 224.404 242.017 250.503C242.015 312.159 190.644 362.321 127.5 362.321Z" fill="#333333"/>
<path d="M127.545 201.95C131.131 201.95 134.037 199.111 134.037 195.61C134.037 192.109 131.131 189.27 127.545 189.27C123.959 189.27 121.052 192.109 121.052 195.61C121.052 199.111 123.959 201.95 127.545 201.95Z" fill="white"/>
</svg>
