<svg width="312" height="303" viewBox="0 0 312 303" fill="none" xmlns="http://www.w3.org/2000/svg">
<path d="M216.489 156.725C214.369 161.952 211.907 168.393 209.328 175.855C199.333 204.762 187.604 249.024 187.604 297.607H124.393C124.393 249.024 112.664 204.762 102.676 175.855C100.097 168.386 97.6351 161.944 95.5151 156.718C101.977 155.884 107.87 153.289 112.693 149.436C119.213 157.804 128.166 164.223 138.504 167.681C139.531 174.36 140.551 181.635 141.498 189.435C141.767 191.584 142.022 193.777 142.27 196.006C143.057 202.914 148.95 208.155 155.995 208.155H156.002C163.047 208.155 168.948 202.914 169.727 196.006C169.975 193.777 170.23 191.584 170.492 189.435C171.439 181.635 172.459 174.36 173.501 167.681C183.831 164.223 192.784 157.804 199.304 149.436C204.134 153.289 210.028 155.891 216.489 156.725Z" fill="#71A517"/>
<path d="M157.187 203.184L153.817 209.205C154.845 209.205 156.283 208.924 157.989 208.444C175.325 203.574 187.985 188.859 190.464 171.242C190.663 169.831 190.84 168.611 190.985 167.681C198.602 165.131 205.467 160.967 211.164 155.602C206.786 154.317 202.77 152.2 199.305 149.436C192.785 157.804 183.831 164.223 173.501 167.681C172.46 174.36 171.44 181.635 170.493 189.435C170.23 191.584 169.975 193.777 169.728 196.006C169.314 199.674 166.176 198.655 163.47 200.847C160.01 202.645 153.881 203.184 157.187 203.184Z" fill="#648E13"/>
<path d="M216.49 156.725C210.028 155.891 204.134 153.289 199.304 149.436C192.784 157.804 183.831 164.223 173.501 167.681C168.008 169.514 162.122 170.506 156.002 170.506C149.883 170.506 143.997 169.514 138.504 167.681C128.167 164.223 119.213 157.804 112.693 149.436C107.871 153.289 101.977 155.884 95.5154 156.718C94.0365 156.912 92.5212 157.013 90.9914 157.013C90.8093 157.013 90.6344 156.998 90.4523 156.998C87.5747 172.958 73.4565 185.078 56.4606 185.078C37.3886 185.078 21.9226 169.823 21.9226 150.996C21.9226 144.993 23.5034 139.349 26.2717 134.447C13.7853 126.783 5.46582 113.124 5.46582 97.5384C5.46582 73.5488 25.1717 54.1026 49.4816 54.1026C51.5578 54.1026 53.6049 54.2608 55.6083 54.5339C59.0395 33.916 77.1718 18.1793 99.034 18.1793C108.053 18.1793 116.438 20.868 123.424 25.4617C129.114 13.5999 141.345 5.39014 155.529 5.39014C169.902 5.39014 182.272 13.83 187.86 25.9506C194.984 21.0621 203.632 18.1793 212.971 18.1793C234.833 18.1793 252.965 33.916 256.389 54.5339C258.393 54.2608 260.44 54.1026 262.523 54.1026C286.833 54.1026 306.539 73.5488 306.539 97.5384C306.539 113.124 298.22 126.783 285.726 134.447C288.494 139.349 290.075 144.993 290.075 150.996C290.075 169.823 274.616 185.078 255.544 185.078C238.541 185.078 224.423 172.958 221.553 156.998C221.37 156.998 221.188 157.013 221.006 157.013C219.476 157.013 217.968 156.912 216.49 156.725Z" fill="#9AD14B"/>
<path d="M74.3744 150.996C74.3744 144.993 75.9552 139.349 78.7235 134.447C66.2371 126.783 57.9176 113.124 57.9176 97.5384C57.9176 73.5488 77.6235 54.1026 101.933 54.1026C104.01 54.1026 106.057 54.2608 108.06 54.5339C111.491 33.916 129.624 18.1793 151.486 18.1793C160.505 18.1793 168.89 20.868 175.876 25.4617C177.396 22.2928 179.386 19.3878 181.753 16.8271C175.262 9.80273 165.92 5.39014 155.529 5.39014C141.345 5.39014 129.114 13.5999 123.424 25.4617C116.438 20.868 108.053 18.1793 99.034 18.1793C77.1718 18.1793 59.0395 33.916 55.6083 54.5339C53.6049 54.2608 51.5578 54.1026 49.4816 54.1026C25.1717 54.1026 5.46582 73.5488 5.46582 97.5384C5.46582 113.124 13.7853 126.783 26.2717 134.447C23.5034 139.349 21.9226 144.993 21.9226 150.996C21.9226 169.823 37.3886 185.078 56.4606 185.078C66.9568 185.078 76.3515 180.452 82.6829 173.157C77.5076 167.198 74.3744 159.461 74.3744 150.996Z" fill="#90BC42"/>
<path d="M121.234 179.01C126.304 183.146 132.14 186.401 138.503 188.529C139.486 188.86 140.485 189.162 141.497 189.435C140.55 181.635 139.53 174.36 138.503 167.681C130.879 165.13 124.012 160.965 118.314 155.599C117.315 154.659 116.353 153.682 115.428 152.671C115.411 152.653 115.394 152.635 115.378 152.617C114.96 152.159 114.554 151.693 114.152 151.221C114.1 151.159 114.045 151.101 113.993 151.039C113.549 150.512 113.115 149.978 112.692 149.436C107.869 153.289 101.975 155.884 95.5137 156.718C97.6336 161.944 100.096 168.386 102.675 175.855C112.662 204.762 124.391 249.024 124.391 297.607H141.875C141.877 250.756 130.969 207.928 121.234 179.01Z" fill="#648E13"/>
<path d="M216.489 156.725C214.37 161.952 211.907 168.393 209.328 175.855C205.657 174.554 202.277 172.656 199.304 170.284C192.784 178.652 183.831 185.071 173.501 188.529C172.51 188.86 171.505 189.162 170.492 189.435C171.439 181.635 172.459 174.36 173.501 167.681C183.831 164.223 192.784 157.804 199.304 149.436C204.134 153.289 210.028 155.891 216.489 156.725Z" fill="#648E13"/>
<path d="M129.367 102.764C127.497 102.764 125.676 101.817 124.656 100.112C124.531 99.9038 124.398 99.8757 124.283 99.8757C124.164 99.8757 124.06 99.9189 123.973 100.004C121.827 102.099 118.368 102.08 116.246 99.9634C114.124 97.8463 114.142 94.433 116.288 92.3388C118.432 90.2454 121.271 89.0923 124.284 89.0923C128.336 89.0923 131.993 91.1634 134.068 94.6321C135.602 97.1964 134.738 100.503 132.139 102.016C131.267 102.523 130.311 102.764 129.367 102.764Z" fill="white"/>
<path d="M173.589 112.945C170.571 112.945 168.125 110.531 168.125 107.553C168.125 104.901 165.942 102.744 163.259 102.744C160.241 102.744 157.795 100.33 157.795 97.3522C157.795 94.3745 160.241 91.9604 163.259 91.9604C171.968 91.9604 179.052 98.9553 179.052 107.553C179.052 110.531 176.606 112.945 173.589 112.945Z" fill="white"/>
<path d="M268.26 168.637C266.884 168.637 265.508 168.128 264.445 167.104C262.285 165.025 262.243 161.611 264.35 159.48C266.61 157.193 267.855 154.18 267.855 150.996C267.855 148.906 267.337 146.929 266.316 145.119L263.087 139.401C261.619 136.8 262.565 133.517 265.201 132.067C267.837 130.618 271.165 131.552 272.633 134.153L275.862 139.871C277.8 143.304 278.783 147.047 278.783 150.996C278.783 157.01 276.435 162.698 272.171 167.01C271.102 168.093 269.681 168.637 268.26 168.637Z" fill="white"/>
<path d="M287.078 114.648C286.28 114.648 285.471 114.475 284.705 114.11C281.988 112.814 280.849 109.59 282.162 106.909C283.594 103.986 284.319 100.834 284.319 97.5392C284.319 90.4732 280.783 83.8485 274.86 79.8169C272.375 78.1261 271.75 74.7689 273.463 72.3174C275.177 69.866 278.578 69.2484 281.063 70.94C289.944 76.9838 295.247 86.9276 295.247 97.5392C295.247 102.472 294.155 107.203 292.001 111.602C291.059 113.526 289.108 114.648 287.078 114.648Z" fill="white"/>
<path d="M239.847 62.6009C237.219 62.6009 234.901 60.7239 234.462 58.0805C232.999 49.2661 226.349 42.392 217.521 40.5689C214.568 39.9585 212.674 37.1016 213.293 34.1865C213.911 31.2714 216.811 29.4037 219.76 30.014C233.042 32.758 243.046 43.09 245.246 56.3364C245.734 59.2753 243.716 62.0473 240.738 62.529C240.438 62.5772 240.141 62.6009 239.847 62.6009Z" fill="white"/>
<path d="M172.611 38.1907C170.534 38.1907 168.55 37.0167 167.634 35.0304C165.474 30.3447 160.722 27.3174 155.528 27.3174C152.511 27.3174 150.064 24.9033 150.064 21.9257C150.064 18.948 152.511 16.5339 155.528 16.5339C164.996 16.5339 173.652 22.0421 177.581 30.5661C178.83 33.277 177.616 36.4733 174.87 37.7062C174.137 38.0347 173.368 38.1907 172.611 38.1907Z" fill="white"/>
<path d="M118.722 47.6348C117.681 47.6348 116.628 47.3422 115.697 46.7297L111.103 43.7089C107.519 41.3516 103.345 40.1065 99.0334 40.1065C97.6922 40.1065 96.3503 40.2258 95.0456 40.4602C92.0755 40.9929 89.2322 39.0526 88.6902 36.1231C88.1489 33.1936 90.1166 30.3863 93.0852 29.8521C95.0346 29.5013 97.0358 29.3237 99.0326 29.3237C105.508 29.3237 111.776 31.195 117.161 34.7363L121.755 37.7571C124.266 39.4084 124.945 42.7556 123.273 45.2336C122.221 46.7908 120.488 47.6348 118.722 47.6348Z" fill="white"/>
<path d="M262.523 76.0291C265.54 76.0291 267.987 73.6151 267.987 70.6373C267.987 67.6596 265.54 65.2456 262.523 65.2456C259.505 65.2456 257.059 67.6596 257.059 70.6373C257.059 73.6151 259.505 76.0291 262.523 76.0291Z" fill="white"/>
<path d="M163.256 75.4288C156.486 75.4288 150.054 77.4453 144.637 81.1951C139.381 75.7617 132.019 72.5547 124.284 72.5547C108.773 72.5547 96.1558 85.0067 96.1558 100.312C96.1558 115.617 108.774 128.069 124.284 128.069C127.301 128.069 129.747 125.655 129.747 122.678C129.747 119.7 127.301 117.286 124.284 117.286C114.799 117.286 107.083 109.671 107.083 100.312C107.083 90.9527 114.799 83.3381 124.284 83.3381C130.416 83.3381 135.951 86.4682 139.088 91.7111C139.955 93.1597 141.458 94.1259 143.151 94.3236C144.846 94.5206 146.534 93.9275 147.72 92.719C151.834 88.5235 157.352 86.2123 163.257 86.2123C175.182 86.2123 184.884 95.7858 184.884 107.554C184.884 110.532 187.33 112.946 190.348 112.946C193.365 112.946 195.811 110.532 195.811 107.554C195.81 89.8398 181.206 75.4288 163.256 75.4288Z" fill="#333333"/>
<path d="M312 97.5407C312 70.618 289.804 48.7146 262.522 48.7146C261.921 48.7146 261.315 48.7261 260.706 48.7491C254.929 27.6394 235.598 12.7921 212.969 12.7921C204.849 12.7921 196.975 14.7259 189.891 18.4268C182.408 7.07107 169.493 0 155.528 0C141.764 0 128.929 6.93448 121.405 18.063C114.502 14.6008 106.87 12.7921 99.0319 12.7921C76.4026 12.7921 57.0712 27.6394 51.2949 48.7491C50.6859 48.7261 50.0798 48.7146 49.4788 48.7146C22.1958 48.7139 0 70.6173 0 97.5407C0 112.905 7.14947 127.057 19.3496 136.271C17.4504 140.934 16.4604 145.945 16.4604 150.999C16.4604 172.764 34.4033 190.47 56.4585 190.47C72.9043 190.47 87.2907 180.655 93.3744 166.201C104.06 194.286 118.929 243.152 118.929 297.608C118.929 300.586 121.375 303 124.392 303H187.608C190.626 303 193.072 300.586 193.072 297.608C193.072 243.153 207.94 194.287 218.626 166.201C224.71 180.655 239.096 190.47 255.542 190.47C277.597 190.47 295.54 172.763 295.54 150.999C295.54 145.945 294.55 140.933 292.651 136.27C304.85 127.056 312 112.905 312 97.5407ZM182.191 292.217H129.809C128.857 237.11 113.576 188.23 102.906 160.591C105.989 159.64 108.958 158.336 111.728 156.679C117.869 163.309 125.327 168.368 133.567 171.634C134.795 179.86 135.9 188.237 136.842 196.605C137.935 206.265 146.169 213.549 156.003 213.549C165.83 213.549 174.064 206.265 175.157 196.597C176.095 188.209 177.198 179.834 178.429 171.635C186.67 168.369 194.13 163.31 200.27 156.679C203.042 158.336 206.01 159.64 209.093 160.591C198.424 188.23 183.143 237.111 182.191 292.217ZM145.09 174.913C148.651 175.553 152.295 175.901 156 175.901C159.704 175.901 163.347 175.554 166.905 174.914C165.941 181.683 165.064 188.546 164.297 195.409C163.823 199.603 160.258 202.766 155.996 202.766C151.742 202.766 148.178 199.604 147.704 195.413C146.933 188.561 146.055 181.697 145.09 174.913ZM282.842 129.867C280.366 131.386 279.535 134.555 280.954 137.069C283.347 141.309 284.611 146.127 284.611 150.999C284.611 166.818 271.571 179.687 255.541 179.687C241.429 179.687 229.396 169.749 226.93 156.056C226.466 153.479 224.196 151.607 221.551 151.607C221.522 151.607 221.494 151.607 221.465 151.608L221.006 151.621C214.281 151.621 207.964 149.416 202.739 145.244C201.595 144.33 200.127 143.91 198.662 144.081C197.2 144.251 195.869 144.997 194.971 146.148C185.577 158.203 171.372 165.117 155.999 165.117C140.626 165.117 126.421 158.203 117.027 146.148C116.129 144.997 114.798 144.251 113.336 144.081C111.873 143.91 110.403 144.33 109.259 145.244C104.034 149.416 97.7177 151.621 90.998 151.621L90.5332 151.608C87.875 151.584 85.5379 153.451 85.0688 156.056C82.6021 169.749 70.5695 179.687 56.4578 179.687C40.4279 179.687 27.3871 166.818 27.3871 150.999C27.3871 146.126 28.6518 141.309 31.0449 137.069C32.4633 134.556 31.6328 131.386 29.1566 129.867C17.7425 122.862 10.9275 110.777 10.9275 97.5407C10.9275 76.564 28.2212 59.4981 49.4781 59.4981C51.2272 59.4981 53.036 59.6253 54.8536 59.8748C57.7888 60.2802 60.5199 58.2968 61 55.4076C64.0669 36.9628 80.0618 23.5748 99.0312 23.5748C106.669 23.5748 114.056 25.7782 120.389 29.9478C121.71 30.8177 123.349 31.0765 124.88 30.6588C126.41 30.2404 127.681 29.1851 128.36 27.7688C133.308 17.4505 143.971 10.7835 155.527 10.7835C167.278 10.7835 178.016 17.6137 182.883 28.1836C183.554 29.6408 184.847 30.7285 186.41 31.152C187.975 31.5761 189.648 31.2921 190.978 30.3777C197.458 25.9277 205.061 23.5748 212.967 23.5748C231.937 23.5748 247.931 36.9621 250.998 55.4076C251.479 58.2961 254.207 60.2795 257.144 59.8748C258.963 59.6246 260.771 59.4974 262.52 59.4974C283.777 59.4974 301.07 76.5633 301.07 97.54C301.073 110.777 294.257 122.862 282.842 129.867Z" fill="#333333"/>
</svg>
