<svg width="255" height="210" viewBox="0 0 255 210" fill="none" xmlns="http://www.w3.org/2000/svg">
<path d="M234.292 149.731C241.446 149.731 247.242 155.619 247.242 162.877C247.242 170.135 241.446 176.023 234.292 176.023C227.138 176.023 221.335 170.135 221.335 162.877C221.335 155.619 227.138 149.731 234.292 149.731Z" fill="#E6E6E6"/>
<path d="M250.137 81.2224C250.687 105.055 236.844 125.676 216.811 134.769C203.693 140.729 192.59 150.4 184.344 162.346C166.508 188.185 136.943 205.081 103.494 205.081C48.5257 205.081 4.05846 159.468 4.85978 103.515C5.6288 49.4299 49.2689 5.40949 102.577 4.92431C119.327 4.76696 135.114 8.8451 148.983 16.1687C161.797 22.9416 176.099 26.3772 190.522 25.5249C192.099 25.4331 193.689 25.4068 195.292 25.4527C225.122 26.2264 249.44 50.9575 250.137 81.2224ZM160.285 81.3469C160.285 57.8943 141.551 38.887 118.435 38.887C95.3259 38.887 76.5916 57.8943 76.5916 81.3469C76.5916 104.793 95.3259 123.807 118.435 123.807C141.551 123.807 160.285 104.793 160.285 81.3469Z" fill="#E6E6E6"/>
<path d="M24.2455 103.515C24.9718 52.4276 63.9507 10.3277 113.196 5.40765C109.705 5.06212 106.165 4.89034 102.577 4.92378C49.2689 5.40896 5.6288 49.4293 4.85978 103.514C4.05846 159.467 48.5257 205.081 103.494 205.081C106.764 205.081 109.996 204.914 113.185 204.598C62.7797 199.609 23.492 156.136 24.2455 103.515Z" fill="#CCCCCC"/>
<path d="M118.435 38.887C141.551 38.887 160.285 57.8943 160.285 81.3469C160.285 104.793 141.551 123.807 118.435 123.807C95.3261 123.807 76.5918 104.793 76.5918 81.3469C76.5918 57.8943 95.3261 38.887 118.435 38.887Z" fill="#F7B239"/>
<path d="M101.794 81.3469C101.794 62.3507 114.086 46.2742 131.038 40.8493C127.06 39.5767 122.828 38.887 118.435 38.887C95.3261 38.887 76.5918 57.8943 76.5918 81.3469C76.5918 104.793 95.3261 123.807 118.435 123.807C122.828 123.807 127.06 123.117 131.038 121.844C114.086 116.417 101.794 100.337 101.794 81.3469Z" fill="#E09B2D"/>
<path d="M221.085 119.223C219.732 119.223 218.387 118.652 217.428 117.535C215.671 115.487 215.881 112.381 217.9 110.597C226.12 103.335 230.688 92.7985 230.433 81.6898C230.214 72.2077 226.397 63.2273 219.686 56.4026C212.975 49.578 204.12 45.6854 194.752 45.4421C193.679 45.412 192.677 45.429 191.664 45.488C174.159 46.5246 156.1 42.4779 139.881 33.9066C136.412 32.0747 132.803 30.4985 129.156 29.2226C126.625 28.3369 125.281 25.5385 126.153 22.971C127.026 20.4035 129.785 19.041 132.315 19.9249C136.413 21.3588 140.465 23.1277 144.358 25.1838C159.035 32.9402 175.3 36.6053 191.104 35.6696C192.398 35.5936 193.705 35.5733 195.014 35.6106C206.867 35.9188 218.071 40.8355 226.548 49.456C235.025 58.0759 239.846 69.4416 240.123 81.4596C240.447 95.5004 234.667 108.824 224.267 118.014C223.349 118.825 222.214 119.223 221.085 119.223Z" fill="white"/>
<path d="M114.806 25.671C114.592 25.671 114.377 25.6573 114.159 25.6278C110.677 25.1557 107.095 24.917 103.512 24.917C103.261 24.917 103.011 24.9183 102.755 24.921C100.095 24.9656 97.8885 22.7652 97.864 20.0495C97.8388 17.3331 99.9888 15.1118 102.665 15.0862C102.952 15.0836 103.231 15.0823 103.513 15.0823C107.523 15.0823 111.537 15.3504 115.442 15.8789C118.095 16.2388 119.959 18.712 119.605 21.4041C119.279 23.8745 117.198 25.671 114.806 25.671Z" fill="white"/>
<path d="M137.508 105.616C136.268 105.616 135.027 105.136 134.081 104.175C132.188 102.255 132.188 99.1411 134.081 97.2214C138.268 92.9734 140.574 87.3355 140.574 81.3467C140.574 74.1575 137.127 67.3434 131.353 63.1164C129.182 61.5277 128.692 58.4547 130.257 56.2517C131.823 54.0494 134.853 53.5504 137.024 55.1411C145.317 61.2104 150.267 71.0065 150.267 81.3467C150.267 89.9627 146.953 98.0704 140.935 104.176C139.989 105.135 138.748 105.616 137.508 105.616Z" fill="white"/>
<path d="M122.698 58.9058C125.375 58.9058 127.545 56.7042 127.545 53.9884C127.545 51.2726 125.375 49.071 122.698 49.071C120.021 49.071 117.851 51.2726 117.851 53.9884C117.851 56.7042 120.021 58.9058 122.698 58.9058Z" fill="white"/>
<path d="M254.983 81.1063C254.617 65.2015 248.256 50.1793 237.071 38.805C225.887 27.4315 211.095 20.9431 195.418 20.534C193.69 20.4907 191.948 20.5183 190.243 20.6186C177.089 21.3896 163.593 18.3448 151.219 11.8086C136.304 3.93031 119.473 -0.125546 102.534 0.00296129C75.4764 0.252109 49.9295 11.13 30.5987 30.6323C11.2667 50.1353 0.404139 75.9935 0.0112297 103.442C-0.393958 131.796 10.1778 158.524 29.7799 178.703C49.386 198.885 75.5643 210 103.492 210C137.228 210 168.937 193.24 188.316 165.167C196.255 153.664 206.794 144.704 218.792 139.256C241.354 129.012 255.56 106.187 254.983 81.1063ZM180.375 159.525C162.81 184.973 134.068 200.165 103.492 200.165C78.1802 200.165 54.4538 190.091 36.6837 171.799C18.9174 153.51 9.33572 129.284 9.70343 103.584C10.0589 78.7191 19.9074 55.2874 37.4333 37.6052C54.9585 19.9249 78.1098 10.0633 102.621 9.83838C102.904 9.83575 103.186 9.83444 103.467 9.83444C118.534 9.83444 133.479 13.5264 146.743 20.532C160.666 27.8865 175.9 31.3116 190.804 30.4363C192.242 30.3511 193.71 30.3281 195.17 30.3655C208.346 30.709 220.79 36.1726 230.209 45.7516C239.628 55.3294 244.985 67.9671 245.292 81.3351C245.777 102.446 233.822 121.658 214.833 130.279C201.235 136.454 189.321 146.567 180.375 159.525Z" fill="#333333"/>
<path d="M234.29 144.816C224.474 144.816 216.488 152.918 216.488 162.877C216.488 172.836 224.473 180.938 234.29 180.938C244.106 180.938 252.091 172.836 252.091 162.877C252.091 152.918 244.106 144.816 234.29 144.816ZM234.29 171.104C229.819 171.104 226.181 167.413 226.181 162.877C226.181 158.341 229.818 154.651 234.29 154.651C238.761 154.651 242.398 158.341 242.398 162.877C242.398 167.413 238.761 171.104 234.29 171.104Z" fill="#333333"/>
<path d="M118.438 33.967C92.6893 33.967 71.7417 55.22 71.7417 81.3437C71.7417 107.467 92.69 128.721 118.438 128.721C144.186 128.721 165.135 107.467 165.135 81.3437C165.135 55.22 144.186 33.967 118.438 33.967ZM118.438 118.886C98.0343 118.886 81.4352 102.045 81.4352 81.3437C81.4352 60.6435 98.035 43.8018 118.438 43.8018C138.841 43.8018 155.441 60.6435 155.441 81.3437C155.441 102.045 138.841 118.886 118.438 118.886Z" fill="#333333"/>
<path d="M195.003 102.471C197.679 102.471 199.849 100.27 199.849 97.5541C199.849 94.8383 197.679 92.6367 195.003 92.6367C192.326 92.6367 190.156 94.8383 190.156 97.5541C190.156 100.27 192.326 102.471 195.003 102.471Z" fill="#333333"/>
<path d="M117.649 162.492C120.326 162.492 122.496 160.291 122.496 157.575C122.496 154.859 120.326 152.657 117.649 152.657C114.973 152.657 112.803 154.859 112.803 157.575C112.803 160.291 114.973 162.492 117.649 162.492Z" fill="#333333"/>
<path d="M49.043 63.6102C51.7198 63.6102 53.8898 61.4086 53.8898 58.6928C53.8898 55.977 51.7198 53.7754 49.043 53.7754C46.3663 53.7754 44.1963 55.977 44.1963 58.6928C44.1963 61.4086 46.3663 63.6102 49.043 63.6102Z" fill="#333333"/>
</svg>
