<svg width="22" height="22" viewBox="0 0 22 22" fill="none" xmlns="http://www.w3.org/2000/svg">
<path d="M16.6165 4.17677C16.3693 4.17587 16.1275 4.2484 15.9216 4.38514C15.7158 4.52188 15.5552 4.71669 15.4602 4.94484C15.3652 5.17299 15.3401 5.42421 15.3881 5.66664C15.4361 5.90908 15.555 6.13179 15.7298 6.30654C15.9045 6.48129 16.1272 6.60021 16.3697 6.6482C16.6121 6.6962 16.8633 6.67111 17.0915 6.57612C17.3196 6.48113 17.5144 6.32053 17.6512 6.11467C17.7879 5.90881 17.8604 5.66698 17.8595 5.41984C17.8595 5.09016 17.7286 4.77398 17.4955 4.54086C17.2623 4.30773 16.9462 4.17677 16.6165 4.17677ZM11.0882 5.77243C10.0534 5.77153 9.0416 6.07762 8.18084 6.65195C7.32009 7.22628 6.64905 8.04305 6.25264 8.99888C5.85624 9.95472 5.75229 11.0067 5.95394 12.0216C6.1556 13.0365 6.6538 13.9688 7.38549 14.7005C8.11719 15.4322 9.04949 15.9304 10.0644 16.1321C11.0794 16.3337 12.1313 16.2298 13.0871 15.8334C14.043 15.437 14.8597 14.7659 15.4341 13.9052C16.0084 13.0444 16.3145 12.0327 16.3136 10.9979C16.3112 9.61274 15.7599 8.28501 14.7805 7.30557C13.801 6.32612 12.4733 5.77482 11.0882 5.77243ZM11.0882 14.361C10.4255 14.3619 9.77745 14.1662 9.22603 13.7987C8.67461 13.4312 8.24458 12.9083 7.99037 12.2964C7.73616 11.6844 7.66919 11.0108 7.79792 10.3608C7.92665 9.71071 8.2453 9.11346 8.71356 8.64456C9.18182 8.17567 9.77864 7.85621 10.4285 7.7266C11.0784 7.59699 11.7521 7.66306 12.3644 7.91644C12.9767 8.16983 13.5001 8.59914 13.8684 9.15007C14.2366 9.70099 14.4332 10.3488 14.4332 11.0114C14.4296 11.8967 14.0757 12.7445 13.4489 13.3696C12.8221 13.9947 11.9734 14.3462 11.0882 14.3474V14.361Z" fill="black"/>
<path d="M15.2333 21.6114H6.76224C5.07259 21.609 3.45283 20.9367 2.25807 19.742C1.0633 18.5472 0.391033 16.9275 0.388641 15.2378V6.76227C0.391033 5.07262 1.0633 3.45286 2.25807 2.2581C3.45283 1.06333 5.07259 0.391063 6.76224 0.388672H15.2333C16.9237 0.389867 18.5446 1.06161 19.7404 2.2565C20.9361 3.4514 21.609 5.07184 21.6114 6.76227V15.2378C21.609 16.9282 20.9361 18.5487 19.7404 19.7436C18.5446 20.9385 16.9237 21.6102 15.2333 21.6114ZM6.76224 2.38664C5.60212 2.38783 4.48985 2.84922 3.66952 3.66955C2.84919 4.48988 2.3878 5.60215 2.38661 6.76227V15.2378C2.3878 16.3979 2.84919 17.5102 3.66952 18.3305C4.48985 19.1509 5.60212 19.6122 6.76224 19.6134H15.2333C16.3942 19.6134 17.5076 19.1526 18.3289 18.3321C19.1502 17.5117 19.6122 16.3987 19.6134 15.2378V6.76227C19.6122 5.60137 19.1502 4.48842 18.3289 3.66796C17.5076 2.8475 16.3942 2.38664 15.2333 2.38664H6.76224Z" fill="black"/>
</svg>
