<svg width="166" height="19" viewBox="0 0 166 19" fill="none" xmlns="http://www.w3.org/2000/svg">
<path d="M12.4297 16.1602V18H0.875V16.1602H12.4297ZM12.0547 2.57812L1.41406 18H0.0195312V16.3125L10.6484 0.9375H12.0547V2.57812ZM11.0938 0.9375V2.78906H0.171875V0.9375H11.0938ZM19.9883 18H16.4258L16.4492 16.1602H19.9883C21.207 16.1602 22.2227 15.9062 23.0352 15.3984C23.8477 14.8828 24.457 14.1641 24.8633 13.2422C25.2773 12.3125 25.4844 11.2266 25.4844 9.98438V8.94141C25.4844 7.96484 25.3672 7.09766 25.1328 6.33984C24.8984 5.57422 24.5547 4.92969 24.1016 4.40625C23.6484 3.875 23.0938 3.47266 22.4375 3.19922C21.7891 2.92578 21.043 2.78906 20.1992 2.78906H16.3555V0.9375H20.1992C21.3164 0.9375 22.3359 1.125 23.2578 1.5C24.1797 1.86719 24.9727 2.40234 25.6367 3.10547C26.3086 3.80078 26.8242 4.64453 27.1836 5.63672C27.543 6.62109 27.7227 7.73047 27.7227 8.96484V9.98438C27.7227 11.2188 27.543 12.332 27.1836 13.3242C26.8242 14.3086 26.3047 15.1484 25.625 15.8438C24.9531 16.5391 24.1406 17.0742 23.1875 17.4492C22.2422 17.8164 21.1758 18 19.9883 18ZM17.6328 0.9375V18H15.3711V0.9375H17.6328ZM44.2578 8.92969V10.0078C44.2578 11.2891 44.0977 12.4375 43.7773 13.4531C43.457 14.4688 42.9961 15.332 42.3945 16.043C41.793 16.7539 41.0703 17.2969 40.2266 17.6719C39.3906 18.0469 38.4531 18.2344 37.4141 18.2344C36.4062 18.2344 35.4805 18.0469 34.6367 17.6719C33.8008 17.2969 33.0742 16.7539 32.457 16.043C31.8477 15.332 31.375 14.4688 31.0391 13.4531C30.7031 12.4375 30.5352 11.2891 30.5352 10.0078V8.92969C30.5352 7.64844 30.6992 6.50391 31.0273 5.49609C31.3633 4.48047 31.8359 3.61719 32.4453 2.90625C33.0547 2.1875 33.7773 1.64062 34.6133 1.26562C35.457 0.890625 36.3828 0.703125 37.3906 0.703125C38.4297 0.703125 39.3672 0.890625 40.2031 1.26562C41.0469 1.64062 41.7695 2.1875 42.3711 2.90625C42.9805 3.61719 43.4453 4.48047 43.7656 5.49609C44.0938 6.50391 44.2578 7.64844 44.2578 8.92969ZM42.0195 10.0078V8.90625C42.0195 7.89062 41.9141 6.99219 41.7031 6.21094C41.5 5.42969 41.1992 4.77344 40.8008 4.24219C40.4023 3.71094 39.9141 3.30859 39.3359 3.03516C38.7656 2.76172 38.1172 2.625 37.3906 2.625C36.6875 2.625 36.0508 2.76172 35.4805 3.03516C34.918 3.30859 34.4336 3.71094 34.0273 4.24219C33.6289 4.77344 33.3203 5.42969 33.1016 6.21094C32.8828 6.99219 32.7734 7.89062 32.7734 8.90625V10.0078C32.7734 11.0312 32.8828 11.9375 33.1016 12.7266C33.3203 13.5078 33.6328 14.168 34.0391 14.707C34.4531 15.2383 34.9414 15.6406 35.5039 15.9141C36.0742 16.1875 36.7109 16.3242 37.4141 16.3242C38.1484 16.3242 38.8008 16.1875 39.3711 15.9141C39.9414 15.6406 40.4219 15.2383 40.8125 14.707C41.2109 14.168 41.5117 13.5078 41.7148 12.7266C41.918 11.9375 42.0195 11.0312 42.0195 10.0078ZM47.6445 0.9375H53.293C54.5742 0.9375 55.6562 1.13281 56.5391 1.52344C57.4297 1.91406 58.1055 2.49219 58.5664 3.25781C59.0352 4.01562 59.2695 4.94922 59.2695 6.05859C59.2695 6.83984 59.1094 7.55469 58.7891 8.20312C58.4766 8.84375 58.0234 9.39062 57.4297 9.84375C56.8438 10.2891 56.1406 10.6211 55.3203 10.8398L54.6875 11.0859H49.3789L49.3555 9.24609H53.3633C54.1758 9.24609 54.8516 9.10547 55.3906 8.82422C55.9297 8.53516 56.3359 8.14844 56.6094 7.66406C56.8828 7.17969 57.0195 6.64453 57.0195 6.05859C57.0195 5.40234 56.8906 4.82812 56.6328 4.33594C56.375 3.84375 55.9688 3.46484 55.4141 3.19922C54.8672 2.92578 54.1602 2.78906 53.293 2.78906H49.9062V18H47.6445V0.9375ZM57.6172 18L53.4688 10.2656L55.8242 10.2539L60.0312 17.8594V18H57.6172ZM75.5703 8.92969V10.0078C75.5703 11.2891 75.4102 12.4375 75.0898 13.4531C74.7695 14.4688 74.3086 15.332 73.707 16.043C73.1055 16.7539 72.3828 17.2969 71.5391 17.6719C70.7031 18.0469 69.7656 18.2344 68.7266 18.2344C67.7188 18.2344 66.793 18.0469 65.9492 17.6719C65.1133 17.2969 64.3867 16.7539 63.7695 16.043C63.1602 15.332 62.6875 14.4688 62.3516 13.4531C62.0156 12.4375 61.8477 11.2891 61.8477 10.0078V8.92969C61.8477 7.64844 62.0117 6.50391 62.3398 5.49609C62.6758 4.48047 63.1484 3.61719 63.7578 2.90625C64.3672 2.1875 65.0898 1.64062 65.9258 1.26562C66.7695 0.890625 67.6953 0.703125 68.7031 0.703125C69.7422 0.703125 70.6797 0.890625 71.5156 1.26562C72.3594 1.64062 73.082 2.1875 73.6836 2.90625C74.293 3.61719 74.7578 4.48047 75.0781 5.49609C75.4062 6.50391 75.5703 7.64844 75.5703 8.92969ZM73.332 10.0078V8.90625C73.332 7.89062 73.2266 6.99219 73.0156 6.21094C72.8125 5.42969 72.5117 4.77344 72.1133 4.24219C71.7148 3.71094 71.2266 3.30859 70.6484 3.03516C70.0781 2.76172 69.4297 2.625 68.7031 2.625C68 2.625 67.3633 2.76172 66.793 3.03516C66.2305 3.30859 65.7461 3.71094 65.3398 4.24219C64.9414 4.77344 64.6328 5.42969 64.4141 6.21094C64.1953 6.99219 64.0859 7.89062 64.0859 8.90625V10.0078C64.0859 11.0312 64.1953 11.9375 64.4141 12.7266C64.6328 13.5078 64.9453 14.168 65.3516 14.707C65.7656 15.2383 66.2539 15.6406 66.8164 15.9141C67.3867 16.1875 68.0234 16.3242 68.7266 16.3242C69.4609 16.3242 70.1133 16.1875 70.6836 15.9141C71.2539 15.6406 71.7344 15.2383 72.125 14.707C72.5234 14.168 72.8242 13.5078 73.0273 12.7266C73.2305 11.9375 73.332 11.0312 73.332 10.0078ZM84.207 15.4102L89.2344 0.9375H91.6836L85.3672 18H83.6211L84.207 15.4102ZM79.5078 0.9375L84.4883 15.4102L85.1094 18H83.3633L77.0586 0.9375H79.5078ZM104.82 16.1602V18H95.7852V16.1602H104.82ZM96.2422 0.9375V18H93.9805V0.9375H96.2422ZM103.625 8.27344V10.1133H95.7852V8.27344H103.625ZM104.703 0.9375V2.78906H95.7852V0.9375H104.703ZM111.055 0.9375V18H106.941V0.9375H111.055ZM121.238 0.9375L114.629 9.58594L110.762 13.8164L110.012 10.043L112.484 6.29297L116.164 0.9375H121.238ZM116.375 18L111.969 10.3125L115.168 7.95703L121.238 18H116.375ZM134.035 14.8359V18H124.941V14.8359H134.035ZM126.406 0.9375V18H122.293V0.9375H126.406ZM132.863 7.71094V10.7695H124.941V7.71094H132.863ZM134.07 0.9375V4.11328H124.941V0.9375H134.07ZM144.219 0.9375V18H140.105V0.9375H144.219ZM149.352 0.9375V4.11328H135.09V0.9375H149.352ZM165.207 9.12891V9.82031C165.207 11.125 165.023 12.2969 164.656 13.3359C164.297 14.3672 163.785 15.25 163.121 15.9844C162.457 16.7109 161.672 17.2695 160.766 17.6602C159.859 18.043 158.859 18.2344 157.766 18.2344C156.664 18.2344 155.656 18.043 154.742 17.6602C153.836 17.2695 153.047 16.7109 152.375 15.9844C151.711 15.25 151.195 14.3672 150.828 13.3359C150.469 12.2969 150.289 11.125 150.289 9.82031V9.12891C150.289 7.82422 150.469 6.65234 150.828 5.61328C151.195 4.57422 151.707 3.69141 152.363 2.96484C153.027 2.23047 153.812 1.67188 154.719 1.28906C155.633 0.898438 156.641 0.703125 157.742 0.703125C158.836 0.703125 159.836 0.898438 160.742 1.28906C161.656 1.67188 162.445 2.23047 163.109 2.96484C163.773 3.69141 164.289 4.57422 164.656 5.61328C165.023 6.65234 165.207 7.82422 165.207 9.12891ZM161.035 9.82031V9.10547C161.035 8.26172 160.961 7.51953 160.812 6.87891C160.672 6.23047 160.461 5.6875 160.18 5.25C159.898 4.8125 159.551 4.48438 159.137 4.26562C158.73 4.03906 158.266 3.92578 157.742 3.92578C157.195 3.92578 156.719 4.03906 156.312 4.26562C155.906 4.48438 155.566 4.8125 155.293 5.25C155.02 5.6875 154.812 6.23047 154.672 6.87891C154.539 7.51953 154.473 8.26172 154.473 9.10547V9.82031C154.473 10.6562 154.539 11.3984 154.672 12.0469C154.812 12.6875 155.02 13.2305 155.293 13.6758C155.574 14.1211 155.918 14.457 156.324 14.6836C156.738 14.9102 157.219 15.0234 157.766 15.0234C158.289 15.0234 158.754 14.9102 159.16 14.6836C159.566 14.457 159.906 14.1211 160.18 13.6758C160.461 13.2305 160.672 12.6875 160.812 12.0469C160.961 11.3984 161.035 10.6562 161.035 9.82031Z" fill="#0F6D35"/>
</svg>
