<svg width="21" height="21" viewBox="0 0 21 21" fill="none" xmlns="http://www.w3.org/2000/svg">
<path d="M20.3391 1.44241C20.2891 1.07738 20.1891 0.894866 19.8462 0.860101C19.6442 0.843758 19.4416 0.882354 19.2534 0.973087L18.0033 1.51194L16.3032 2.25938L14.8174 2.91991L11.1672 4.53647L7.54553 6.1878L5.2954 7.22205C4.62393 7.52624 3.96675 7.84781 3.30242 8.152C2.6381 8.4562 1.82377 8.86468 1.10229 9.25578C0.895552 9.35885 0.70287 9.49951 0.530834 9.67296C0.479913 9.72544 0.438142 9.7898 0.407982 9.86223C0.377822 9.93466 0.359885 10.0137 0.355225 10.0947C0.350565 10.1757 0.359277 10.257 0.380849 10.3338C0.402421 10.4107 0.436415 10.4815 0.480829 10.5421C0.566337 10.671 0.680344 10.7675 0.809421 10.8202C2.28094 11.4025 3.80245 11.8371 5.22396 12.5584C5.35254 12.628 6.39546 13.3754 6.70976 13.6448L15.6817 6.72665L10.3243 16.1566L11.3672 17.0257C12.0815 17.608 12.753 18.199 13.4316 18.7639C14.1102 19.3289 14.7174 19.8851 15.3103 20.5022C15.4562 20.6527 15.6304 20.7572 15.8174 20.8064C15.989 20.872 16.1728 20.8731 16.3449 20.8096C16.5169 20.746 16.6692 20.6207 16.7818 20.45C16.8988 20.2782 16.9819 20.076 17.0247 19.859C17.589 17.0952 18.1461 14.3314 18.6819 11.5589C19.2176 8.78646 19.7462 6.1878 20.182 3.39793C20.2751 2.84804 20.3324 2.29007 20.3534 1.72922C20.3558 1.63329 20.351 1.53729 20.3391 1.44241Z" fill="black"/>
</svg>
