<svg width="18" height="21" viewBox="0 0 18 21" fill="none" xmlns="http://www.w3.org/2000/svg">
<path d="M17.5446 8.55712C17.378 8.57517 17.2105 8.58423 17.0429 8.58425C16.1451 8.58112 15.2622 8.35524 14.4733 7.92685C13.6843 7.49846 13.0141 6.88096 12.5226 6.12973V14.5058C12.5172 15.7242 12.1512 16.9138 11.4708 17.9245C10.7904 18.9352 9.82591 19.7218 8.69904 20.1852C7.57218 20.6486 6.33334 20.768 5.13873 20.5283C3.94412 20.2886 2.8472 19.7006 1.98628 18.8385C1.12535 17.9763 0.538964 16.8785 0.301038 15.6835C0.0631121 14.4886 0.184301 13.2499 0.649325 12.1237C1.11435 10.9976 1.90239 10.0343 2.9141 9.35529C3.92581 8.67632 5.11589 8.31209 6.3343 8.30851H6.71401V11.3507C6.58819 11.3317 6.46144 11.3196 6.3343 11.3145C5.54914 11.3874 4.81951 11.7509 4.28833 12.3337C3.75716 12.9165 3.46274 13.6766 3.46274 14.4651C3.46274 15.2537 3.75716 16.0138 4.28833 16.5966C4.81951 17.1794 5.54914 17.5428 6.3343 17.6158C7.17854 17.6282 7.99411 17.3097 8.60656 16.7285C9.21901 16.1473 9.57972 15.3495 9.61151 14.5058L9.64315 0.325684H12.5497C12.6831 1.5857 13.2534 2.75925 14.1617 3.64272C15.0699 4.5262 16.2588 5.06385 17.522 5.16239V8.54356" fill="black"/>
</svg>
