<svg width="230" height="230" viewBox="0 0 230 230" fill="none" xmlns="http://www.w3.org/2000/svg">
<g clip-path="url(#clip0_13_894)">
<path d="M115 230C51.5889 230 0 178.411 0 115C0 51.5889 51.5889 0 115 0C176.539 0 226.893 47.9965 229.857 109.36C229.869 109.442 229.879 109.526 229.888 109.609C229.935 110.076 229.934 110.475 229.916 110.811C229.974 112.332 230.001 113.706 230.001 115C230.001 178.411 178.412 230 115 230Z" fill="white"/>
<path d="M115.399 223.91C175.328 223.91 223.91 175.328 223.91 115.399C223.91 55.4707 175.328 6.88892 115.399 6.88892C55.4704 6.88892 6.88867 55.4707 6.88867 115.399C6.88867 175.328 55.4704 223.91 115.399 223.91Z" fill="#FFB80E"/>
<path d="M115.121 174.999C113.827 174.999 112.777 173.95 112.777 172.656V122.445C112.777 121.151 113.827 120.101 115.121 120.101C116.416 120.101 117.465 121.151 117.465 122.445V172.656C117.465 173.95 116.416 174.999 115.121 174.999Z" fill="#00000C"/>
<path d="M145.826 94.5481L142.37 96.1786C133.743 100.249 124.432 102.284 115.121 102.284C105.81 102.284 96.4992 100.249 87.8722 96.1786L84.4164 94.5481C78.9813 102.22 76.2012 111.229 76.2012 120.298C76.2012 120.539 76.204 120.778 76.207 121.019C94.7604 121.019 105.21 127.483 110.507 132.461C113.137 134.932 117.216 134.971 119.874 132.531C125.306 127.543 135.882 121.019 154.035 121.019C154.038 120.778 154.041 120.539 154.041 120.298C154.041 111.229 151.261 102.22 145.826 94.5481Z" fill="white"/>
<path d="M162.899 75.0863H155.694L156.416 74.4394C157.381 73.576 157.462 72.0943 156.599 71.1298C155.735 70.1654 154.254 70.0836 153.289 70.947L147.999 75.6837C147.503 76.1283 147.219 76.7633 147.219 77.4298C147.219 78.0964 147.503 78.7313 147.999 79.1759L153.289 83.9126C153.737 84.3132 154.295 84.5103 154.852 84.5103C155.495 84.5103 156.136 84.2469 156.599 83.7298C157.462 82.7656 157.381 81.2836 156.416 80.4202L155.694 79.7733H162.899C164.194 79.7733 165.243 78.724 165.243 77.4296C165.243 76.1351 164.194 75.0863 162.899 75.0863Z" fill="#00000C"/>
<path d="M76.9536 83.9133L82.2437 79.1766C82.7403 78.732 83.0241 78.097 83.0241 77.4305C83.0241 76.7639 82.7403 76.129 82.2437 75.6844L76.9536 70.9477C75.9891 70.0842 74.5074 70.1663 73.644 71.1305C72.7805 72.0947 72.8623 73.5766 73.8268 74.4401L74.5491 75.087H67.3438C66.0493 75.087 65 76.1363 65 77.4307C65 78.7252 66.0493 79.7745 67.3438 79.7745H74.5494L73.827 80.4213C72.8626 81.2848 72.7808 82.7665 73.6442 83.7309C74.1071 84.248 74.7477 84.5114 75.3913 84.5114C75.9477 84.5107 76.5064 84.3138 76.9536 83.9133Z" fill="#00000C"/>
<path d="M147.689 93.1211C147.518 92.8809 147.35 92.639 147.184 92.3953C140.599 82.7164 138.89 70.1676 142.612 58.8275L142.858 58.0754C143.262 56.8454 142.592 55.5212 141.362 55.1176C140.132 54.7143 138.808 55.3837 138.405 56.6136L138.158 57.3657C136.108 63.6111 135.482 70.3272 136.349 76.7882C137.224 83.3171 139.631 89.6254 143.308 95.0312C143.492 95.3015 143.679 95.5698 143.869 95.837C152.503 107.979 154.091 123.948 148.013 137.511L132.694 171.697C132.164 172.878 132.693 174.265 133.874 174.794C134.185 174.934 134.511 175 134.831 175C135.726 175 136.581 174.484 136.971 173.614L152.29 139.428C155.625 131.986 156.962 123.773 156.157 115.675C155.352 107.579 152.424 99.7794 147.689 93.1211Z" fill="#00000C"/>
<path d="M82.2295 137.511C76.1518 123.947 77.7396 107.979 86.3744 95.8362C86.564 95.5695 86.7506 95.3014 86.9338 95.0319C90.6118 89.6256 93.0186 83.3173 93.8938 76.7883C94.7598 70.3274 94.1342 63.6112 92.0846 57.3657L91.8378 56.6136C91.434 55.3836 90.1096 54.7138 88.8801 55.1176C87.6503 55.5212 86.9805 56.8456 87.3841 58.0754L87.6309 58.8272C91.3527 70.1673 89.6432 82.7161 83.0578 92.3957C82.8923 92.6389 82.7243 92.8803 82.5536 93.1203C77.8184 99.7793 74.8901 107.579 74.0853 115.675C73.2802 123.773 74.6173 131.986 77.952 139.427L93.271 173.614C93.6608 174.484 94.5158 175 95.4111 175C95.7315 175 96.0568 174.934 96.368 174.794C97.5493 174.265 98.0778 172.878 97.5483 171.697L82.2295 137.511Z" fill="#00000C"/>
<path d="M115.121 83.4165C113.827 83.4165 112.777 84.4658 112.777 85.7603V88.6958C112.777 89.9903 113.827 91.0395 115.121 91.0395C116.416 91.0395 117.465 89.9903 117.465 88.6958V85.7603C117.465 84.4658 116.416 83.4165 115.121 83.4165Z" fill="#00000C"/>
</g>
<defs>
<clipPath id="clip0_13_894">
<rect width="230" height="230" fill="white"/>
</clipPath>
</defs>
</svg>
