<svg width="230" height="230" viewBox="0 0 230 230" fill="none" xmlns="http://www.w3.org/2000/svg">
<g clip-path="url(#clip0_13_765)">
<path d="M115 230C51.5889 230 0 178.411 0 115C0 51.5889 51.5889 0 115 0C176.539 0 226.893 47.9965 229.857 109.36C229.869 109.442 229.879 109.526 229.888 109.609C229.935 110.076 229.934 110.475 229.916 110.811C229.974 112.332 230.001 113.706 230.001 115C230.001 178.411 178.412 230 115 230Z" fill="white"/>
<path d="M115.399 223.91C175.328 223.91 223.91 175.328 223.91 115.399C223.91 55.4707 175.328 6.88892 115.399 6.88892C55.4704 6.88892 6.88867 55.4707 6.88867 115.399C6.88867 175.328 55.4704 223.91 115.399 223.91Z" fill="#FFB80E"/>
<path d="M105.507 144.555C92.3997 144.555 81.7363 133.891 81.7363 120.784V110.073C81.7363 96.9656 92.3999 86.3022 105.507 86.3022H124.494C137.601 86.3022 148.264 96.9656 148.264 110.073C148.264 122.514 138.657 132.753 126.472 133.762C122.992 140.184 116.19 144.555 108.387 144.555H105.507Z" fill="white"/>
<path d="M158.279 73C156.985 73 155.936 74.0493 155.936 75.3438V150.321C155.936 154.476 159.304 157.857 163.445 157.857C167.586 157.857 170.955 154.476 170.955 150.321V129.618H172.655C173.95 129.618 174.999 128.569 174.999 127.274V89.7944C174.999 80.534 167.499 73 158.279 73ZM160.623 77.9181C166.14 79.0183 170.312 83.9254 170.312 89.7944V124.931H160.623V77.9181ZM166.267 150.321C166.267 151.891 165.001 153.169 163.445 153.169C161.889 153.169 160.623 151.891 160.623 150.321V129.618H166.267V150.321Z" fill="#00000C"/>
<path d="M76.5236 73.29C75.2291 73.29 74.1798 74.3393 74.1798 75.6338V90.93C74.1798 92.4933 72.9201 93.7653 71.3713 93.7653H69.2774V75.634C69.2774 74.3396 68.2281 73.2903 66.9337 73.2903C65.6392 73.2903 64.5899 74.3396 64.5899 75.634V93.7653H62.496C60.9475 93.7653 59.6875 92.4933 59.6875 90.93V75.6338C59.6875 74.3393 58.6382 73.29 57.3438 73.29C56.0493 73.29 55 74.3393 55 75.6338V90.93C55 95.078 58.3628 98.4528 62.496 98.4528H64.5899V111.964H61.7678C60.4734 111.964 59.4241 113.013 59.4241 114.307V150.321C59.4241 154.476 62.793 157.857 66.9337 157.857C71.0744 157.857 74.4433 154.476 74.4433 150.321V114.307C74.4433 113.013 73.394 111.964 72.0995 111.964H69.2774V98.4528H71.3713C75.5045 98.4528 78.8673 95.0782 78.8673 90.93V75.6338C78.8673 74.3396 77.818 73.29 76.5236 73.29ZM69.7558 150.321C69.7558 151.891 68.4899 153.17 66.9337 153.17C65.3774 153.17 64.1116 151.891 64.1116 150.321V116.651H69.7555L69.7558 150.321Z" fill="#00000C"/>
<path d="M124.494 93.8022H105.507C96.5352 93.8022 89.2363 101.101 89.2363 110.073V120.784C89.2363 129.756 96.5352 137.055 105.507 137.055H108.387C114.785 137.055 120.123 132.427 121.231 126.343H124.494C133.465 126.343 140.764 119.044 140.764 110.073C140.764 101.101 133.465 93.8022 124.494 93.8022ZM124.494 121.656H119.098C117.804 121.656 116.754 122.705 116.754 124C116.754 128.613 113.001 132.367 108.387 132.367H105.507C99.1199 132.367 93.9238 127.171 93.9238 120.784V110.073C93.9238 103.686 99.1199 98.4897 105.507 98.4897H124.494C130.881 98.4897 136.077 103.686 136.077 110.073C136.077 116.46 130.881 121.656 124.494 121.656Z" fill="#00000C"/>
<path d="M126.355 109.152C125.977 108.23 125.015 107.639 124.023 107.711C123.049 107.782 122.206 108.467 121.938 109.405C121.669 110.344 122.028 111.384 122.825 111.953C123.61 112.515 124.686 112.532 125.49 111.997C126.408 111.386 126.779 110.17 126.355 109.152Z" fill="#00000C"/>
</g>
<defs>
<clipPath id="clip0_13_765">
<rect width="230" height="230" fill="white"/>
</clipPath>
</defs>
</svg>
