<svg width="230" height="230" viewBox="0 0 230 230" fill="none" xmlns="http://www.w3.org/2000/svg">
<g clip-path="url(#clip0_13_828)">
<path d="M115 230C51.5889 230 0 178.411 0 115C0 51.5889 51.5889 0 115 0C176.539 0 226.893 47.9965 229.857 109.36C229.869 109.442 229.879 109.526 229.888 109.609C229.935 110.076 229.934 110.475 229.916 110.811C229.974 112.332 230.001 113.706 230.001 115C230.001 178.411 178.412 230 115 230Z" fill="white"/>
<path d="M115.399 223.91C175.328 223.91 223.91 175.328 223.91 115.399C223.91 55.4707 175.328 6.88892 115.399 6.88892C55.4704 6.88892 6.88867 55.4707 6.88867 115.399C6.88867 175.328 55.4704 223.91 115.399 223.91Z" fill="#FFB80E"/>
<path d="M153.524 142.366C152.56 141.502 151.078 141.584 150.215 142.549L149.568 143.271V136.066C149.568 134.771 148.518 133.722 147.224 133.722C145.93 133.722 144.88 134.771 144.88 136.066V143.271L144.233 142.549C143.77 142.031 143.13 141.768 142.487 141.768C141.93 141.768 141.371 141.965 140.924 142.366C139.96 143.229 139.878 144.711 140.741 145.676L145.478 150.966C145.923 151.462 146.558 151.746 147.224 151.746C147.891 151.746 148.526 151.462 148.97 150.966L153.707 145.676C154.57 144.711 154.489 143.229 153.524 142.366Z" fill="#00000C"/>
<path d="M89.0752 142.366C88.1106 141.502 86.6291 141.584 85.7656 142.549L85.1188 143.271V136.066C85.1188 134.771 84.0692 133.722 82.775 133.722C81.4808 133.722 80.4313 134.771 80.4313 136.066V143.271L79.7844 142.549C79.3213 142.031 78.6809 141.768 78.0376 141.768C77.4809 141.768 76.9222 141.965 76.4748 142.366C75.5106 143.229 75.4288 144.711 76.2922 145.676L81.0289 150.966C81.4735 151.462 82.1084 151.746 82.775 151.746C83.4416 151.746 84.0765 151.462 84.5211 150.966L89.2578 145.676C90.1213 144.711 90.0395 143.229 89.0752 142.366Z" fill="#00000C"/>
<path d="M161.784 67.5779H159.377V67.3438C159.377 66.0493 158.327 65 157.033 65C155.739 65 154.689 66.0493 154.689 67.3438V67.5779H145.134V67.3438C145.134 66.0493 144.085 65 142.791 65C141.496 65 140.447 66.0493 140.447 67.3438V67.5779H89.553V67.3438C89.553 66.0493 88.5034 65 87.2092 65C85.915 65 84.8655 66.0493 84.8655 67.3438V67.5779H75.3107V67.3438C75.3107 66.0493 74.2612 65 72.967 65C71.6727 65 70.6232 66.0493 70.6232 67.3438V67.5779H68.2164C60.9287 67.5779 55 73.5066 55 80.7941V151.413C55 158.701 60.9287 164.63 68.2164 164.63H161.784C169.071 164.63 175 158.701 175 151.413V80.7941C175 73.5066 169.071 67.5779 161.784 67.5779ZM68.2164 72.2654H70.6234V73.3878C70.6234 74.6823 71.673 75.7316 72.9672 75.7316C74.2614 75.7316 75.3109 74.6823 75.3109 73.3878V72.2654H84.8657V73.3878C84.8657 74.6823 85.9152 75.7316 87.2095 75.7316C88.5037 75.7316 89.5532 74.6823 89.5532 73.3878V72.2654H140.447V73.3878C140.447 74.6823 141.497 75.7316 142.791 75.7316C144.085 75.7316 145.135 74.6823 145.135 73.3878V72.2654H154.69V73.3878C154.69 74.6823 155.739 75.7316 157.033 75.7316C158.328 75.7316 159.377 74.6823 159.377 73.3878V72.2654H161.784C166.367 72.2654 170.117 75.8982 170.305 80.4352H59.695C59.8837 75.8982 63.6339 72.2654 68.2164 72.2654ZM170.312 151.413C170.312 156.116 166.487 159.942 161.784 159.942H68.2164C63.5137 159.942 59.6875 156.116 59.6875 151.413V85.1225H170.312V151.413Z" fill="#00000C"/>
<path d="M110.752 147.716L105.119 142.282L110.224 137.589C111.176 136.713 111.239 135.231 110.363 134.278C109.487 133.325 108.004 133.262 107.051 134.138L103.605 137.306V135.691C103.605 134.396 102.556 133.347 101.262 133.347C99.9675 133.347 98.918 134.396 98.918 135.691V149.402C98.918 150.697 99.9675 151.746 101.262 151.746C102.556 151.746 103.605 150.697 103.605 149.402V147.334L107.497 151.089C107.952 151.528 108.538 151.746 109.124 151.746C109.738 151.746 110.351 151.506 110.811 151.029C111.71 150.098 111.683 148.614 110.752 147.716Z" fill="#00000C"/>
<path d="M128.739 140.203H124.637C123.343 140.203 122.293 141.252 122.293 142.547C122.293 143.841 123.343 144.89 124.637 144.89H125.967C125.524 145.998 124.628 147.059 122.821 147.059C120.333 147.059 118.309 145.034 118.309 142.547C118.309 140.059 120.333 138.035 122.821 138.035C123.725 138.035 124.597 138.301 125.341 138.804C126.414 139.528 127.871 139.247 128.596 138.174C129.32 137.101 129.039 135.644 127.966 134.92C126.443 133.891 124.664 133.347 122.821 133.347C117.748 133.347 113.621 137.474 113.621 142.546C113.621 147.619 117.748 151.746 122.821 151.746C127.685 151.746 131.083 147.963 131.083 142.546C131.083 141.252 130.033 140.203 128.739 140.203Z" fill="#00000C"/>
<path d="M76 105C76 96.7157 82.7157 90 91 90H139.945C148.229 90 154.945 96.7157 154.945 105V114.397C154.945 122.681 148.229 129.397 139.945 129.397H91C82.7157 129.397 76 122.681 76 114.397V105Z" fill="white"/>
<path d="M112.426 102.114C112.418 102.092 112.409 102.071 112.401 102.05C111.986 101.043 111.015 100.392 109.926 100.392H109.924C108.833 100.393 107.862 101.045 107.449 102.054C107.442 102.072 107.434 102.09 107.428 102.108L101.921 116.565C101.461 117.775 102.068 119.129 103.277 119.59C104.487 120.05 105.841 119.443 106.302 118.234L107.098 116.142H112.71L113.496 118.227C113.85 119.166 114.742 119.744 115.689 119.744C115.964 119.744 116.244 119.695 116.516 119.592C117.727 119.135 118.338 117.783 117.881 116.572L112.426 102.114ZM108.884 111.455L109.917 108.742L110.941 111.455H108.884Z" fill="#00000C"/>
<path d="M86.9051 119.063C87.3443 119.499 87.9377 119.743 88.5562 119.743H88.5651C88.6872 119.743 91.5644 119.731 92.7164 119.712C97.312 119.631 100.648 115.667 100.648 110.285C100.648 104.627 97.3966 100.826 92.5575 100.826H88.5274C87.9051 100.826 87.3082 101.073 86.8685 101.514C86.4288 101.955 86.1825 102.552 86.1836 103.174V103.183V103.184V117.169C86.1836 117.308 86.1958 117.445 86.2193 117.578C86.2619 118.137 86.5043 118.665 86.9051 119.063ZM92.5577 105.513C95.7152 105.513 95.9606 109.165 95.9606 110.284C95.9606 112.615 94.9322 114.984 92.6351 115.025C92.2221 115.032 91.5626 115.038 90.8925 115.043C90.8876 113.418 90.8817 111.359 90.8817 110.269C90.8817 109.352 90.8784 107.207 90.8756 105.513H92.5577Z" fill="#00000C"/>
<path d="M134.849 110.417C134.952 110.484 135.061 110.543 135.174 110.594C135.26 110.632 137.294 111.537 139.584 112.382C140.385 112.678 141.284 113.229 141.18 113.81C141.091 114.312 140.374 115.056 139.122 115.056C137.806 115.056 136.545 114.531 135.748 113.652C134.879 112.692 133.397 112.62 132.437 113.489C131.478 114.358 131.406 115.841 132.275 116.8C133.97 118.67 136.466 119.743 139.122 119.743C142.46 119.743 145.266 117.594 145.795 114.633C146.196 112.385 145.202 109.458 141.206 107.984C139.496 107.354 137.898 106.669 137.316 106.415C137.176 106.274 137.164 106.1 137.183 105.969C137.232 105.627 137.527 105.35 137.991 105.21C139.805 104.663 141.541 106.038 141.559 106.052L141.897 106.22C142.909 106.721 144.135 106.415 144.792 105.496C145.564 104.417 145.265 102.909 144.141 102.204C141.79 100.729 139.285 99.9249 136.639 100.722C134.422 101.39 132.853 103.145 132.543 105.302C132.251 107.339 133.135 109.299 134.849 110.417Z" fill="#00000C"/>
<path d="M121.413 110.604L121.396 117.394C121.393 118.688 122.44 119.74 123.734 119.743H123.74C125.032 119.743 126.08 118.698 126.084 117.405L126.1 110.607L130.368 104.051C131.074 102.967 130.767 101.515 129.683 100.809C128.597 100.102 127.146 100.409 126.44 101.494L123.755 105.617L121.037 101.454C120.329 100.371 118.877 100.065 117.793 100.773C116.709 101.481 116.404 102.933 117.112 104.017L121.413 110.604Z" fill="#00000C"/>
</g>
<defs>
<clipPath id="clip0_13_828">
<rect width="230" height="230" fill="white"/>
</clipPath>
</defs>
</svg>
