<svg width="231" height="230" viewBox="0 0 231 230" fill="none" xmlns="http://www.w3.org/2000/svg">
<g clip-path="url(#clip0_13_884)">
<path d="M115.004 230C51.5928 230 0.00390625 178.411 0.00390625 115C0.00390625 51.5889 51.5928 0 115.004 0C176.543 0 226.897 47.9965 229.861 109.36C229.873 109.442 229.883 109.526 229.892 109.609C229.939 110.076 229.938 110.475 229.92 110.811C229.977 112.332 230.005 113.706 230.005 115C230.005 178.411 178.416 230 115.004 230Z" fill="white"/>
<path d="M115.403 223.91C175.332 223.91 223.913 175.328 223.913 115.399C223.913 55.4707 175.332 6.88892 115.403 6.88892C55.4743 6.88892 6.89258 55.4707 6.89258 115.399C6.89258 175.328 55.4743 223.91 115.403 223.91Z" fill="#FFB80E"/>
<path d="M139.594 100.335H151.46C158.709 100.335 164.606 94.4375 164.606 87.1883V80.0352C164.606 78.741 163.557 77.6914 162.263 77.6914H155.112C152.743 77.6914 150.518 78.3212 148.597 79.4221C145.559 74.8492 140.384 72.0085 134.788 72.0085H125.373C124.079 72.0085 123.029 73.0581 123.029 74.3523V83.7685C123.029 92.9033 130.46 100.335 139.594 100.335ZM159.919 82.3789V87.1883C159.919 91.8526 156.124 95.6476 151.46 95.6476H146.653V90.8382C146.653 86.1739 150.447 82.3789 155.112 82.3789H159.919ZM127.717 76.696H134.788C138.984 76.696 142.851 78.9238 144.979 82.4701C143.097 84.745 141.965 87.662 141.965 90.8382V95.6476H139.594C133.045 95.6476 127.717 90.3189 127.717 83.7685V76.696Z" fill="#00000C"/>
<path d="M154.445 55H75.5411C64.2147 55 55 64.2147 55 75.5413V154.459C55 165.785 64.2147 175 75.5411 175H154.445C165.771 175 174.986 165.785 174.986 154.459V75.5413C174.986 64.2147 165.771 55 154.445 55ZM170.298 75.5413V112.656H117.337V59.6875H154.445C163.187 59.6875 170.298 66.7996 170.298 75.5413ZM59.6875 75.5413C59.6875 66.7996 66.7994 59.6875 75.5411 59.6875H112.649V112.656H59.6875V75.5413ZM59.6875 154.459V117.344H112.649V170.312H75.5411C66.7994 170.312 59.6875 163.2 59.6875 154.459ZM170.298 154.459C170.298 163.2 163.187 170.312 154.445 170.312H117.337V117.344H170.298V154.459Z" fill="#00000C"/>
<path d="M91.9781 129.404L73.6821 147.794C72.7691 148.712 72.7731 150.196 73.6911 151.109C74.1481 151.564 74.7461 151.791 75.3441 151.791C75.9451 151.791 76.5481 151.561 77.0051 151.101L95.3011 132.71C96.2141 131.792 96.2101 130.308 95.2931 129.395C94.3751 128.482 92.8911 128.486 91.9781 129.404Z" fill="#00000C"/>
<path d="M91.8821 148.218C91.0271 147.659 89.8871 147.705 89.0921 148.356C88.3471 148.968 88.0521 150.009 88.3621 150.921C88.6811 151.859 89.5871 152.512 90.5791 152.512C91.5441 152.512 92.4321 151.897 92.7711 150.996C93.1541 149.98 92.7731 148.829 91.8821 148.218Z" fill="#00000C"/>
<path d="M76.2354 131.233C76.6184 132.151 77.5624 132.738 78.5544 132.675C79.5284 132.613 80.3774 131.925 80.6504 130.991C80.9144 130.09 80.5954 129.083 79.8584 128.501C79.0664 127.876 77.9404 127.832 77.1004 128.388C76.1774 129 75.8174 130.213 76.2354 131.233Z" fill="#00000C"/>
<path d="M73.2041 93.6574C73.166 90.663 74.3511 87.8905 76.3848 85.6393C78.2348 83.5913 79.274 81.1486 79.274 78.6238V77.6359C79.274 73.727 82.5268 70.4248 86.9897 69.3602C86.007 69.1259 84.9659 69 83.8881 69C77.9137 69 73.0708 72.8665 73.0708 77.6359V78.6238C73.0708 81.1486 72.0316 83.5913 70.1817 85.6393C68.1478 87.8905 66.9627 90.663 67.0009 93.6574C67.0954 101.087 74.8012 107.093 84.107 106.999C85.0942 106.989 86.0608 106.911 87 106.772C79.2442 105.613 73.2871 100.185 73.2041 93.6574Z" fill="white"/>
<path d="M89.9998 86C84.4772 86 80 89.3579 80 93.4998C80 97.6421 84.4772 101 89.9998 101C95.5228 101 100 97.6421 100 93.4998C100 89.3579 95.5228 86 89.9998 86ZM92.5132 94.3597C91.0902 94.3597 89.9366 93.4942 89.9366 92.4272C89.9366 91.3599 91.0902 90.4944 92.5132 90.4944C93.9362 90.4944 95.0898 91.3599 95.0898 92.4272C95.0898 93.4942 93.9362 94.3597 92.5132 94.3597Z" fill="white"/>
<path d="M104.499 84.8087C102.828 82.9761 101.909 80.6918 101.909 78.3764V77.3003C101.909 72.2749 97.1293 68.1358 91.0549 67.7025V64.8594C91.0549 64.3848 90.5823 64 89.9999 64C89.4175 64 88.9454 64.3848 88.9454 64.8594V67.7025C82.871 68.1358 78.0914 72.2749 78.0914 77.3003V78.3043C78.0914 80.6595 77.1586 82.9501 75.3939 84.9282C73.1349 87.4608 71.9615 90.4561 72.001 93.5907C72.0493 97.4503 73.961 101.077 77.3837 103.802C80.7886 106.514 85.2608 108 89.9999 108C90.0778 108 90.1556 108 90.233 107.999C94.9911 107.95 99.4543 106.415 102.802 103.676C106.154 100.932 108 97.297 108 93.4393C108 90.3072 106.789 87.3229 104.499 84.8087ZM90.2065 106.28C85.9453 106.323 81.9155 105.007 78.8583 102.573C75.8392 100.169 74.1531 96.9725 74.1103 93.5728C74.0757 90.8103 75.1096 88.1703 77.1004 85.9384C79.1288 83.6647 80.201 81.0247 80.201 78.3042V77.3002C80.201 72.935 84.597 69.3837 89.9999 69.3837C95.4033 69.3837 99.799 72.935 99.799 77.3002V78.3763C99.799 81.0581 100.867 83.7061 102.805 85.8332C104.823 88.0486 105.891 90.679 105.891 93.4393C105.891 100.431 98.8548 106.191 90.2065 106.28Z" fill="#00000C"/>
<path d="M92.5 90C90.5699 90 89 91.3459 89 93.0004C89 94.6544 90.5699 96 92.5 96C94.4297 96 96 94.6544 96 93.0004C96 91.3459 94.4297 90 92.5 90ZM92.5 94.2083C91.7166 94.2083 91.0792 93.6663 91.0792 93.0004C91.0792 92.3341 91.7166 91.792 92.5 91.792C93.2834 91.792 93.9204 92.3341 93.9204 93.0004C93.9204 93.6663 93.2834 94.2083 92.5 94.2083Z" fill="#00000C"/>
<path d="M139.5 132C145.299 132 150 136.701 150 142.5C150 148.299 145.299 153 139.5 153C133.701 153 129 148.299 129 142.5C129 136.701 133.701 132 139.5 132Z" fill="white"/>
<path d="M138.397 148.338C136.608 147.956 135.088 146.501 134.43 144.54C134.285 144.108 133.858 143.89 133.477 144.055C133.095 144.22 132.903 144.704 133.049 145.136C133.888 147.639 135.833 149.497 138.124 149.985C138.17 149.995 138.216 150 138.261 150C138.61 150 138.92 149.719 138.987 149.317C139.063 148.862 138.799 148.424 138.397 148.338Z" fill="#00000C"/>
<path d="M165 135.61C164.974 132.277 163.735 129.13 161.512 126.751C159.287 124.369 156.339 123.037 153.211 123.001C151.22 122.977 149.243 123.488 147.495 124.477C146.673 124.943 145.717 125.052 144.802 124.784C143.345 124.358 141.834 124.139 140.31 124.132C140.286 124.132 140.262 124.132 140.238 124.132C130.796 124.132 123.071 132.303 123 142.381C122.966 147.351 124.762 152.022 128.057 155.532C131.311 159 135.637 160.909 140.237 160.909C141.151 160.909 142.068 160.833 142.963 160.681C143.634 160.567 144.345 160.67 145.02 160.978C146.505 161.656 148.082 162 149.709 162C149.751 162 149.793 162 149.835 161.999C156.349 161.929 161.642 156.216 161.633 149.266C161.632 148.518 161.569 147.767 161.447 147.035C161.257 145.902 161.549 144.739 162.248 143.843C164.046 141.538 165.023 138.614 165 135.61ZM160.982 142.739C159.977 144.027 159.558 145.704 159.831 147.337C159.937 147.97 159.991 148.62 159.992 149.269C160 155.27 155.436 160.203 149.818 160.265C149.782 160.265 149.746 160.265 149.709 160.265C148.307 160.265 146.949 159.969 145.67 159.385C144.968 159.064 144.231 158.901 143.503 158.901C143.235 158.901 142.967 158.923 142.703 158.968C141.894 159.105 141.064 159.174 140.237 159.174C136.078 159.174 132.165 157.447 129.221 154.309C126.236 151.13 124.61 146.898 124.641 142.394C124.705 133.266 131.694 125.867 140.238 125.867C140.259 125.867 140.282 125.867 140.303 125.867C141.682 125.874 143.048 126.072 144.365 126.457C145.688 126.843 147.074 126.684 148.27 126.007C149.774 125.155 151.476 124.716 153.193 124.736C158.753 124.801 163.313 129.685 163.359 135.624C163.379 138.221 162.535 140.748 160.982 142.739Z" fill="#00000C"/>
<path d="M155.925 134.309C155.764 134.112 155.353 133.986 154.929 134.001C154.514 134.016 154.153 134.163 154.038 134.363C153.923 134.564 154.077 134.786 154.418 134.907C154.753 135.027 155.213 135.031 155.557 134.917C155.949 134.787 156.106 134.526 155.925 134.309Z" fill="#00000C"/>
<path d="M154.443 130.834C154.791 131.065 155.261 131.054 155.596 130.805C155.926 130.558 156.076 130.123 155.962 129.726C155.846 129.32 155.476 129.024 155.053 129.001C154.632 128.979 154.236 129.231 154.075 129.618C153.893 130.054 154.052 130.571 154.443 130.834Z" fill="#00000C"/>
<path d="M159.925 131.618C159.762 131.219 159.341 130.965 158.911 131.004C158.496 131.041 158.142 131.34 158.034 131.742C157.923 132.151 158.092 132.598 158.444 132.834C158.784 133.061 159.241 133.054 159.575 132.82C159.954 132.555 160.103 132.045 159.925 131.618Z" fill="#00000C"/>
</g>
<defs>
<clipPath id="clip0_13_884">
<rect width="231" height="230" fill="white"/>
</clipPath>
</defs>
</svg>
