<svg width="230" height="230" viewBox="0 0 230 230" fill="none" xmlns="http://www.w3.org/2000/svg">
<g clip-path="url(#clip0_13_726)">
<path d="M115 230C51.5889 230 0 178.411 0 115C0 51.5889 51.5889 0 115 0C176.539 0 226.893 47.9965 229.857 109.36C229.869 109.442 229.879 109.526 229.888 109.609C229.935 110.076 229.934 110.475 229.916 110.811C229.974 112.332 230.001 113.706 230.001 115C230.001 178.411 178.412 230 115 230Z" fill="white"/>
<path d="M115.399 223.91C175.328 223.91 223.91 175.328 223.91 115.399C223.91 55.4707 175.328 6.88892 115.399 6.88892C55.4704 6.88892 6.88867 55.4707 6.88867 115.399C6.88867 175.328 55.4704 223.91 115.399 223.91Z" fill="#FFB80E"/>
<path d="M95.6684 89.8489C94.6615 89.0357 93.1859 89.1925 92.3726 90.1993L86.3604 97.6419L83.4488 95.5883C82.3906 94.8421 80.9286 95.0952 80.1825 96.1527C79.4365 97.2107 79.6892 98.6727 80.7469 99.4189L85.4529 102.738C85.8626 103.027 86.3342 103.167 86.8022 103.167C87.488 103.167 88.1656 102.867 88.6268 102.295L96.0188 93.1447C96.8323 92.1381 96.6755 90.6622 95.6684 89.8489Z" fill="#00000C"/>
<path d="M121.861 98.479H103.311C102.016 98.479 100.967 99.5283 100.967 100.823C100.967 102.117 102.016 103.167 103.311 103.167H121.861C123.156 103.167 124.205 102.117 124.205 100.823C124.205 99.5283 123.156 98.479 121.861 98.479Z" fill="#00000C"/>
<path d="M95.6684 110.135C94.6615 109.321 93.1859 109.478 92.3726 110.485L86.3604 117.928L83.4488 115.874C82.3906 115.128 80.9286 115.381 80.1825 116.439C79.4365 117.497 79.6892 118.959 80.7469 119.705L85.4529 123.024C85.8626 123.313 86.3342 123.452 86.8022 123.452C87.488 123.452 88.1656 123.152 88.6268 122.581L96.0188 113.431C96.8323 112.424 96.6755 110.948 95.6684 110.135Z" fill="#00000C"/>
<path d="M121.861 118.765H103.311C102.016 118.765 100.967 119.814 100.967 121.109C100.967 122.403 102.016 123.453 103.311 123.453H121.861C123.156 123.453 124.205 122.403 124.205 121.109C124.205 119.814 123.156 118.765 121.861 118.765Z" fill="#00000C"/>
<path d="M95.6684 130.421C94.6615 129.607 93.1859 129.764 92.3726 130.771L86.3604 138.214L83.4488 136.16C82.3906 135.414 80.9286 135.667 80.1825 136.724C79.4365 137.782 79.6892 139.244 80.7469 139.991L85.4529 143.31C85.8626 143.598 86.3342 143.738 86.8022 143.738C87.488 143.738 88.1656 143.438 88.6268 142.867L96.0188 133.716C96.8323 132.71 96.6755 131.234 95.6684 130.421Z" fill="#00000C"/>
<path d="M121.861 139.051H103.311C102.016 139.051 100.967 140.1 100.967 141.395C100.967 142.689 102.016 143.738 103.311 143.738H121.861C123.156 143.738 124.205 142.689 124.205 141.395C124.205 140.1 123.156 139.051 121.861 139.051Z" fill="#00000C"/>
<path d="M134.58 64.5749H121.586V63.2488C121.586 61.9544 120.537 60.9051 119.242 60.9051H111.912C109.962 57.3156 106.156 55 101.98 55C97.8034 55 93.9976 57.3156 92.0476 60.9051H84.7173C83.4228 60.9051 82.3735 61.9544 82.3735 63.2488V64.5749H69.3798C63.6563 64.5749 59 69.2312 59 74.9547V164.62C59 170.344 63.6563 175 69.3798 175H134.58C135.874 175 136.924 173.951 136.924 172.656C136.924 171.362 135.874 170.312 134.58 170.312H69.3798C66.241 170.312 63.6875 167.759 63.6875 164.62V74.9547C63.6875 71.8159 66.241 69.2624 69.3798 69.2624H82.3735V74.9088H71.7073C70.4129 74.9088 69.3636 75.958 69.3636 77.2525V162.322C69.3636 163.617 70.4129 164.666 71.7073 164.666H124.144C125.438 164.666 126.487 163.617 126.487 162.322C126.487 161.028 125.438 159.978 124.144 159.978H74.0511V79.5963H129.908V138.642C129.908 139.936 130.957 140.986 132.252 140.986C133.546 140.986 134.596 139.936 134.596 138.642V77.2525C134.596 75.958 133.546 74.9088 132.252 74.9088H121.586V69.2624H134.579C137.718 69.2624 140.272 71.8159 140.272 74.9547V139.52C140.272 140.814 141.321 141.863 142.615 141.863C143.91 141.863 144.959 140.814 144.959 139.52V74.9547C144.959 69.2312 140.303 64.5749 134.58 64.5749ZM87.061 74.9088V65.5926H93.5577C94.5458 65.5926 95.4277 64.9727 95.7627 64.0431C96.7011 61.4378 99.1995 59.6875 101.98 59.6875C104.76 59.6875 107.258 61.4378 108.197 64.0431C108.532 64.9729 109.414 65.5926 110.402 65.5926H116.898V74.9088H87.061Z" fill="#00000C"/>
<path d="M134.547 159.017C134.482 153.186 136.497 147.787 139.954 143.403C143.099 139.415 144.866 134.658 144.866 129.741V127.817C144.866 120.205 150.396 113.775 157.982 111.702C156.312 111.245 154.542 111 152.71 111C142.553 111 134.32 118.529 134.32 127.817V129.741C134.32 134.658 132.554 139.415 129.409 143.403C125.951 147.787 123.937 153.186 124.002 159.017C124.162 173.486 137.262 185.182 153.082 184.998C154.76 184.979 156.403 184.827 158 184.555C144.815 182.299 134.688 171.728 134.547 159.017Z" fill="white"/>
<path d="M163.5 144C154.387 144 147 150.716 147 159C147 167.284 154.387 174 163.5 174C172.613 174 180 167.284 180 159C180 150.716 172.613 144 163.5 144ZM167.647 160.719C165.299 160.719 163.395 158.988 163.395 156.854C163.395 154.72 165.299 152.989 167.647 152.989C169.995 152.989 171.898 154.72 171.898 156.854C171.898 158.988 169.995 160.719 167.647 160.719Z" fill="white"/>
<path d="M188.067 142.199C185.237 138.658 183.679 134.245 183.679 129.773V127.694C183.679 117.986 175.58 109.99 165.287 109.152V103.66C165.287 102.743 164.487 102 163.5 102C162.513 102 161.713 102.743 161.713 103.66V109.152C151.42 109.99 143.322 117.986 143.322 127.694V129.633C143.322 134.183 141.741 138.608 138.751 142.43C134.923 147.322 132.935 153.108 133.002 159.164C133.084 166.62 136.323 173.625 142.122 178.891C147.892 184.128 155.47 187 163.5 187C163.632 187 163.764 186.999 163.895 186.998C171.957 186.903 179.52 183.937 185.192 178.646C190.872 173.346 194 166.324 194 158.871C194.001 152.821 191.949 147.056 188.067 142.199ZM163.85 183.678C156.63 183.761 149.801 181.219 144.621 176.516C139.505 171.871 136.648 165.697 136.576 159.129C136.517 153.793 138.269 148.693 141.642 144.381C145.079 139.989 146.896 134.889 146.896 129.633V127.694C146.896 119.261 154.345 112.4 163.5 112.4C172.656 112.4 180.104 119.261 180.104 127.694V129.772C180.104 134.953 181.913 140.069 185.197 144.178C188.618 148.457 190.426 153.539 190.426 158.871C190.426 172.378 178.504 183.506 163.85 183.678Z" fill="#00000C"/>
<path d="M167.5 151C164.467 151 162 153.692 162 157.001C162 160.309 164.467 163 167.5 163C170.532 163 173 160.309 173 157.001C173 153.692 170.532 151 167.5 151ZM167.5 159.417C166.269 159.417 165.267 158.333 165.267 157.001C165.267 155.668 166.269 154.584 167.5 154.584C168.731 154.584 169.732 155.668 169.732 157.001C169.732 158.333 168.731 159.417 167.5 159.417Z" fill="#00000C"/>
</g>
<defs>
<clipPath id="clip0_13_726">
<rect width="230" height="230" fill="white"/>
</clipPath>
</defs>
</svg>
